<?xml version="1.0" ?><svg viewBox="0 0 256 256" xmlns="http://www.w3.org/2000/svg"><g><path d="m39.38 235.93c3.09 3.68 152.9 0 154.93-2.21s5.2-208.32 2.27-211.55-159.91-2.17-163.52 2.75 3.23 207.33 6.32 211.01z" fill="#191919"/><path d="m75 245.49c-7.14 0-13.72-.06-19.35-.18-16.56-.38-19.71-1-22.44-4.23-2.06-2.45-2.83-3.37-4.66-38.56-1-19.1-2-45.12-2.88-71.37-.87-27.41-1.45-52.84-1.62-71.62-.33-35.47.63-36.76 2.53-39.34 2.47-3.34 4.52-4.75 30.84-6.1 21.08-1.08 53.68-1.74 85.21-1.74h.68c55.11 0 56.38 1.41 59.15 4.46 2.44 2.69 3.1 3.41 3.25 39.45.08 18.64-.08 44.28-.44 72.19-.34 26.26-.84 52.5-1.37 72-1 35.74-1.24 36-3.74 38.73-2.79 3-3.54 3.85-60.64 5.38-19.52.44-44.19.93-64.52.93zm-28.7-16.49c22.81 1.57 116.55-.6 140.67-2.37.72-13.35 1.69-49.67 2.32-98.09.71-54.29.53-87.23 0-99.35-24.4-1.5-125.81-.86-149 2.13-1.23 27.39 3.08 168.77 6.01 197.68z" fill="#191919"/></g><g><path d="m39.38 235.93c3.09 3.68 152.9 0 154.93-2.21s5.2-208.32 2.27-211.55-159.91-2.17-163.52 2.75 3.23 207.33 6.32 211.01z" fill="#fff"/></g><path d="m125.54 168.88c-.47.36-.46 31.09.15 31.59s46 .06 46.53-.54 1-31.5 0-31.89-45.88.23-46.68.84z" fill="#fff"/><path d="m134.63 204.72c-10.08 0-10.46-.31-11.49-1.16-1.6-1.32-1.75-1.76-1.89-13-.07-5.51-.06-12 0-16.51.1-5.66.13-7 1.84-8.31 1.3-1 1.61-1.23 25.67-1.61 23.46-.37 24.13-.1 25 .25a4.26 4.26 0 0 1 2.55 3.22c.55 2.53.54 12.2.48 17.75-.16 15.79-.48 16.13-1.67 17.38-1.46 1.54-1.58 1.67-26.11 1.93-6.24.02-10.89.06-14.38.06zm-5.25-8.06c8.44.14 31-.11 39.17-.44.25-5.83.37-18.51.15-24.29-8.35-.05-31.07.27-39.4.64-.16 5.85-.11 18.3.08 24.09z" fill="#191919"/><path d="m61.22 169.32c-.47.36-.46 31.09.15 31.59s46 .06 46.53-.54 1-31.5 0-31.89-45.9.23-46.68.84z" fill="#fff"/><path d="m70.31 205.16c-10.08 0-10.46-.31-11.49-1.16-1.6-1.32-1.75-1.76-1.89-13-.07-5.51-.06-12 0-16.51.1-5.66.13-7 1.84-8.3 1.3-1 1.61-1.23 25.67-1.61 23.45-.37 24.13-.1 25 .25a4.26 4.26 0 0 1 2.56 3.17c.55 2.53.54 12.2.48 17.75-.16 15.79-.48 16.13-1.67 17.39-1.46 1.54-1.58 1.67-26.11 1.93-6.25.06-10.9.09-14.39.09zm-5.25-8.06c8.45.14 31-.11 39.17-.44.25-5.83.37-18.51.15-24.29-8.35 0-31.07.27-39.4.64-.15 5.85-.11 18.31.08 24.1z" fill="#191919"/><path d="m125.54 117.59c-.47.36-.46 31.09.15 31.59s46 .06 46.53-.54 1-31.5 0-31.89-45.88.25-46.68.84z" fill="#fff"/><path d="m134.63 153.43c-10.08 0-10.46-.31-11.49-1.16-1.6-1.32-1.75-1.76-1.89-13-.07-5.51-.06-12 0-16.51.1-5.66.13-7 1.84-8.31 1.3-1 1.61-1.23 25.67-1.61 23.46-.37 24.13-.1 25 .25a4.26 4.26 0 0 1 2.55 3.22c.55 2.53.54 12.2.48 17.75-.16 15.79-.48 16.13-1.67 17.38-1.46 1.54-1.58 1.67-26.11 1.93-6.24.02-10.89.06-14.38.06zm-5.25-8.06c8.44.14 31-.11 39.17-.44.25-5.83.37-18.51.15-24.29-8.36 0-31.07.27-39.4.64-.16 5.85-.11 18.3.08 24.09z" fill="#191919"/><path d="m61.22 118c-.47.36-.46 31.09.15 31.59s46 .06 46.53-.54 1-31.5 0-31.89-45.9.26-46.68.84z" fill="#fff"/><path d="m70.32 153.87c-10.08 0-10.46-.31-11.49-1.16-1.6-1.32-1.75-1.76-1.89-13-.07-5.51-.06-12 0-16.51.1-5.66.13-7 1.84-8.3 1.3-1 1.61-1.23 25.67-1.61 23.46-.37 24.13-.1 25 .25a4.26 4.26 0 0 1 2.55 3.22c.55 2.53.54 12.2.48 17.75-.16 15.79-.48 16.13-1.67 17.38-1.46 1.54-1.58 1.67-26.12 1.93-6.24.01-10.89.05-14.37.05zm-5.25-8.06c8.45.14 31-.11 39.17-.44.25-5.83.37-18.51.15-24.29-8.33 0-31.07.27-39.4.64-.16 5.85-.12 18.28.07 24.1z" fill="#191919"/><path d="m125.54 67.71c-.47.36-.46 31.09.15 31.59s46 .06 46.53-.54 1-31.5 0-31.89-45.88.23-46.68.84z" fill="#fff"/><path d="m134.63 103.55c-10.08 0-10.46-.31-11.49-1.16-1.6-1.32-1.75-1.76-1.89-13-.07-5.51-.06-12 0-16.51.1-5.66.13-7 1.84-8.3 1.3-1 1.61-1.23 25.67-1.61 23.46-.37 24.13-.1 25 .25a4.26 4.26 0 0 1 2.55 3.22c.55 2.53.54 12.2.48 17.75-.16 15.79-.48 16.13-1.67 17.39-1.46 1.54-1.58 1.67-26.11 1.92-6.24.01-10.89.05-14.38.05zm-5.25-8.06c8.45.14 31-.11 39.17-.44.25-5.83.37-18.51.15-24.29-8.35 0-31.07.27-39.4.64-.16 5.85-.11 18.31.08 24.1z" fill="#191919"/><path d="m61.22 68.16c-.47.36-.46 31.09.15 31.59s46 .06 46.53-.54 1-31.5 0-31.89-45.9.23-46.68.84z" fill="#fff"/><path d="m70.31 104c-10.08 0-10.46-.31-11.49-1.16-1.61-1.32-1.76-1.77-1.9-13.13-.07-5.48-.06-12.13 0-16.56.11-5.69.13-6.87 1.84-8.18 1.3-1 1.61-1.23 25.67-1.61 23.46-.37 24.13-.1 25 .25a4.26 4.26 0 0 1 2.57 3.22c.55 2.53.54 12.2.48 17.75-.16 15.79-.48 16.13-1.67 17.39-1.46 1.54-1.58 1.67-26.11 1.93-6.25.1-10.9.1-14.39.1zm-5.25-8.06c8.45.14 31-.11 39.17-.44.25-5.83.37-18.51.15-24.29-8.37 0-31.07.27-39.4.64-.15 5.85-.11 18.3.08 24.09z" fill="#191919"/><g><path d="m98.1 45.55c2.18.79 32-.1 34.62-.07s2.93-9.63-.12-10-29.7-.17-33.3-.11-3.38 9.39-1.2 10.18z" fill="#191919"/></g><path d="m56.78 215.63c-1 1-.81 10.06.14 10.85s9 .62 10.16-.4.78-9.82-.14-10.58-9.2-.83-10.16.13z" fill="#191919"/><path d="m157.68 179c-1.6-1.23 6.58-26.33 7.34-28.48 1.1-3.1 52.39-64.24 55.94-68.21 4.82-5.4 22.09 10.19 17.18 15.5a803.87 803.87 0 0 0 -55.08 66.33c-1.96 2.21-23.78 16.14-25.38 14.86z" fill="#191919"/><path d="m157.77 187.17a7.86 7.86 0 0 1 -5-1.8c-5.32-4.11-3.43-10.63 0-22.45 2-6.75 4.24-13.73 4.7-15 .64-1.8 1.18-3.35 28.44-36.22 13.35-16.11 27.15-32.5 29.09-34.7 2.85-3.19 7.15-4.45 11.8-3.46 7.82 1.67 17.13 10.11 19.53 17.69 1.43 4.51.58 8.9-2.32 12a803.73 803.73 0 0 0 -54.47 65.59 8.32 8.32 0 0 1 -.55.68c-2.38 2.62-11.77 8.44-14.59 10.16-7.83 4.84-12.73 7.51-16.63 7.51zm14.55-33.23c-.71 2.08-2 6.05-3.22 10.23 3.49-2.2 6.66-4.32 8-5.39a828.9 828.9 0 0 1 53.14-64.17 20.5 20.5 0 0 0 -5.24-4.72c-9.76 11.44-48 57.29-52.68 64.06z" fill="#191919"/><path d="m157.68 179c-1.6-1.23 6.58-26.33 7.34-28.48 1.1-3.1 52.39-64.24 55.94-68.21 4.82-5.4 22.09 10.19 17.18 15.5a803.87 803.87 0 0 0 -55.08 66.33c-1.96 2.21-23.78 16.14-25.38 14.86z" fill="#fff"/><path d="m170.88 173.28c-4.22-.85-9.17-4.52-10.82-7-.61-.92-3.79 13.84-3.24 14s15.42-6.72 14.06-7z" fill="#e83a2a"/><path d="m212.89 91.6c3.06-3.51 20.35 11.28 17 15.38-2.21 2.73-12.62 15.3-23.6 29.06-33.52 42-19.9 25.61-24.68 21.81-.72-.57-6.24.82-7.79-.18s-1.3-7.07-2.19-7.93c-2.72-2.69-25.57 18.58 41.26-58.14z" fill="#e83a2a"/></svg>